<?xml version="1.0" encoding="utf-8"?>
<svg width="276px" height="276px" viewBox="0 0 276 276" version="1.1" xmlns:xlink="http://www.w3.org/1999/xlink" xmlns="http://www.w3.org/2000/svg">
  <path d="M0 189L125 0L125 189L109.589 189L109.589 52L18.0664 189L0 189Z" transform="translate(32.5 36.5)" id="New-shape" fill="#14AEE1" fill-rule="evenodd" stroke="none" />
  <path d="M0 17L82 17L82 17L82 17L82 0L0 1.84462e-06L0 17Z" transform="translate(157.5 208.5)" id="New-shape-2" fill="#14AEE1" fill-rule="evenodd" stroke="none" />
  <path d="M0 17L77 17L77 17L77 17L77 0L0 1.84462e-06L0 17Z" transform="translate(80.5 151.5)" id="New-shape-2-Copy" fill="#14AEE1" fill-rule="evenodd" stroke="none" />
  <path d="M0 129.5C0 57.9791 57.9791 0 129.5 0C201.021 0 259 57.9791 259 129.5C259 201.021 201.021 259 129.5 259C57.9791 259 0 201.021 0 129.5Z" transform="translate(8.5 8.5)" id="Ellipse" fill="none" fill-rule="evenodd" stroke="#14AEE1" stroke-width="17" />
</svg>