<?xml version="1.0" encoding="utf-8"?>
<svg width="53px" height="72px" viewBox="0 0 53 72" version="1.1" xmlns:xlink="http://www.w3.org/1999/xlink" xmlns="http://www.w3.org/2000/svg">
  <g id="panther">
    <path d="M7.344 4.248L13.608 1.656L23.04 0L30.312 0.36L40.896 2.736L44.136 4.392L51.48 15.912L50.616 33.408L50.688 34.632L36.936 65.088L34.776 67.032L17.712 67.968L12.672 63.144L1.152 37.368L1.152 33.984L0 15.912L7.344 4.248Z" transform="translate(0.3600006 1.8720016)" id="path991" fill="#00B0F0" fill-rule="evenodd" stroke="none" />
    <g id="@">
      <path d="M19.44 70.776C19.392 70.728 19.272 70.656 19.08 70.56C18.888 70.464 18.768 70.392 18.72 70.344C18.672 70.344 18.564 70.272 18.396 70.128C18.228 69.984 18.12 69.888 18.072 69.84C17.736 69.6 17.472 69.372 17.28 69.156C17.088 68.94 16.992 68.64 16.992 68.256L16.992 67.896L17.856 55.08L17.856 54.36C17.856 53.544 17.712 52.872 17.424 52.344C17.136 51.816 16.764 51.36 16.308 50.976C15.852 50.592 15.324 50.244 14.724 49.932C14.124 49.62 13.512 49.272 12.888 48.888C10.296 47.352 8.052 45.48 6.156 43.272C4.26 41.064 2.712 38.592 1.512 35.856L1.44 35.856C1.44 36.096 1.428 36.3 1.404 36.468C1.38 36.636 1.416 36.816 1.512 37.008C2.184 38.496 2.928 39.972 3.744 41.436C4.56 42.9 5.52 44.232 6.624 45.432C6.768 45.624 6.996 45.876 7.308 46.188C7.62 46.5 7.8 46.68 7.848 46.728L11.952 49.752C12 49.752 12.024 49.776 12.024 49.824C12.936 50.496 13.764 51.18 14.508 51.876C15.252 52.572 15.624 53.544 15.624 54.792L15.624 55.512L15.048 66.384L14.976 66.96C14.592 66.672 14.256 66.36 13.968 66.024C13.68 65.688 13.368 65.352 13.032 65.016C12.648 64.536 12.264 64.068 11.88 63.612C11.496 63.156 11.136 62.664 10.8 62.136C10.704 62.04 10.62 61.908 10.548 61.74C10.476 61.572 10.392 61.44 10.296 61.344C9.768 60.672 9.252 59.952 8.748 59.184C8.244 58.416 7.8 57.624 7.416 56.808C7.176 55.944 6.924 55.08 6.66 54.216C6.396 53.352 6.12 52.464 5.832 51.552C5.592 50.88 5.388 50.28 5.22 49.752C5.052 49.224 4.8 48.648 4.464 48.024C4.224 47.64 3.996 47.268 3.78 46.908C3.564 46.548 3.336 46.2 3.096 45.864C3.048 45.768 2.892 45.552 2.628 45.216C2.364 44.88 2.208 44.664 2.16 44.568C2.064 44.568 2.016 44.472 2.016 44.28C1.968 44.184 1.908 43.98 1.836 43.668C1.764 43.356 1.704 43.152 1.656 43.056C1.656 42.912 1.644 42.66 1.62 42.3C1.596 41.94 1.584 41.556 1.584 41.148C1.584 40.74 1.572 40.356 1.548 39.996C1.524 39.636 1.512 39.384 1.512 39.24C1.416 38.472 1.344 37.692 1.296 36.9C1.248 36.108 1.248 35.328 1.296 34.56L0.719999 22.392L0.719999 21.168C0.816 21.024 0.875999 20.892 0.9 20.772C0.923999 20.652 0.983999 20.52 1.08 20.376L2.376 17.856L2.448 17.784C2.496 17.64 2.604 17.412 2.772 17.1C2.94 16.788 3.132 16.452 3.348 16.092C3.564 15.732 3.756 15.396 3.924 15.084C4.092 14.772 4.224 14.544 4.32 14.4C4.656 13.872 4.992 13.356 5.328 12.852C5.664 12.348 6 11.832 6.336 11.304C6.336 11.256 6.36 11.208 6.408 11.16C6.456 11.112 6.48 11.064 6.48 11.016L8.568 8.064L8.64 7.92L11.232 4.464L12.744 3.96L12.816 3.96C12.912 3.96 12.96 4.032 12.96 4.176C12.96 4.368 12.912 4.56 12.816 4.752C12.768 4.896 12.708 5.208 12.636 5.688C12.564 6.168 12.528 6.48 12.528 6.624L12.528 7.128L12.528 7.632C12.624 8.496 12.744 9.372 12.888 10.26C13.032 11.148 13.104 12.048 13.104 12.96C13.104 13.536 13.056 14.088 12.96 14.616C12.864 15.144 12.744 15.672 12.6 16.2C12.408 16.872 12.168 17.448 11.88 17.928C11.592 18.408 11.448 18.984 11.448 19.656C11.448 20.808 11.748 21.9 12.348 22.932C12.948 23.964 13.56 24.912 14.184 25.776C14.424 25.968 14.616 26.184 14.76 26.424C14.904 26.664 15.072 26.88 15.264 27.072L16.776 28.584C16.776 28.728 16.848 28.8 16.992 28.8C17.088 28.896 17.244 29.064 17.46 29.304C17.676 29.544 17.832 29.712 17.928 29.808C18.072 29.952 18.192 30.048 18.288 30.096L18.504 30.312L18.576 30.312C18.576 30.072 18.468 29.844 18.252 29.628C18.036 29.412 17.856 29.232 17.712 29.088C17.616 28.992 17.412 28.752 17.1 28.368C16.788 27.984 16.584 27.744 16.488 27.648C16.488 27.6 16.416 27.504 16.272 27.36L16.128 27.216L14.328 24.984C14.28 24.792 14.148 24.588 13.932 24.372C13.716 24.156 13.56 23.952 13.464 23.76C13.08 23.136 12.708 22.488 12.348 21.816C11.988 21.144 11.808 20.424 11.808 19.656C11.808 19.608 11.82 19.512 11.844 19.368C11.868 19.224 11.88 19.128 11.88 19.08C11.88 18.984 11.892 18.9 11.916 18.828C11.94 18.756 11.952 18.672 11.952 18.576C12.624 17.76 13.068 16.872 13.284 15.912C13.5 14.952 13.608 13.968 13.608 12.96C13.608 12.48 13.608 12.048 13.608 11.664C13.608 11.28 13.56 10.824 13.464 10.296C13.368 9.72 13.26 9.132 13.14 8.532C13.02 7.932 12.96 7.344 12.96 6.768C12.96 6.24 13.02 5.724 13.14 5.22C13.26 4.716 13.416 4.224 13.608 3.744C13.608 3.696 13.728 3.624 13.968 3.528L19.584 2.376C20.208 2.232 20.76 2.16 21.24 2.16L21.528 2.16L22.032 4.176C22.032 4.224 22.056 4.368 22.104 4.608C22.152 4.848 22.176 4.992 22.176 5.04L22.176 5.112C22.176 5.208 22.2 5.256 22.248 5.256L22.968 9.792C22.968 10.08 23.016 10.416 23.112 10.8L23.184 10.296L22.608 3.456C22.56 3.216 22.524 3.024 22.5 2.88C22.476 2.736 22.464 2.544 22.464 2.304L22.464 2.088L22.536 2.016C22.584 2.016 22.68 1.992 22.824 1.944C22.92 1.944 23.016 1.932 23.112 1.908C23.208 1.884 23.304 1.872 23.4 1.872C23.88 1.824 24.336 1.776 24.768 1.728C25.2 1.68 25.632 1.656 26.064 1.656C26.544 1.656 27 1.68 27.432 1.728C27.864 1.776 28.32 1.824 28.8 1.872C28.896 1.872 29.052 1.896 29.268 1.944C29.484 1.992 29.616 2.016 29.664 2.016L29.664 2.088L29.664 2.16C29.664 2.208 29.688 2.256 29.736 2.304C29.736 2.928 29.664 3.552 29.52 4.176L29.016 10.296L29.016 10.512C29.016 10.656 29.04 10.752 29.088 10.8C29.232 10.272 29.328 9.72 29.376 9.144C29.424 8.568 29.496 8.016 29.592 7.488C29.592 7.44 29.604 7.32 29.628 7.128C29.652 6.936 29.688 6.72 29.736 6.48C29.784 6.24 29.832 6 29.88 5.76C29.928 5.52 29.952 5.352 29.952 5.256C30.048 5.016 30.072 4.848 30.024 4.752L30.6 2.376C30.6 2.28 30.624 2.232 30.672 2.232C30.672 2.184 30.696 2.16 30.744 2.16L31.176 2.16C31.224 2.16 31.44 2.196 31.824 2.268C32.208 2.34 32.664 2.412 33.192 2.484C33.72 2.556 34.248 2.652 34.776 2.772C35.304 2.892 35.736 2.976 36.072 3.024C36.264 3.072 36.636 3.156 37.188 3.276C37.74 3.396 38.088 3.48 38.232 3.528C38.424 3.576 38.58 3.756 38.7 4.068C38.82 4.38 38.916 4.716 38.988 5.076C39.06 5.436 39.108 5.796 39.132 6.156C39.156 6.516 39.168 6.768 39.168 6.912C39.168 7.44 39.12 7.944 39.024 8.424C38.928 8.904 38.832 9.408 38.736 9.936C38.64 10.464 38.58 10.968 38.556 11.448C38.532 11.928 38.52 12.432 38.52 12.96C38.52 13.728 38.568 14.448 38.664 15.12C38.76 15.792 38.952 16.464 39.24 17.136C39.48 17.616 39.72 18.024 39.96 18.36C40.2 18.696 40.32 19.128 40.32 19.656C40.32 20.472 40.08 21.3 39.6 22.14C39.12 22.98 38.64 23.736 38.16 24.408C38.112 24.504 37.944 24.744 37.656 25.128C37.368 25.512 37.176 25.752 37.08 25.848C37.032 25.992 36.96 26.112 36.864 26.208C36.24 26.928 35.616 27.636 34.992 28.332C34.368 29.028 33.792 29.76 33.264 30.528L33.264 30.6C33.264 30.6 33.288 30.576 33.336 30.528L33.408 30.528C33.504 30.432 33.672 30.312 33.912 30.168C34.152 30.024 34.32 29.904 34.416 29.808C34.56 29.568 34.74 29.376 34.956 29.232C35.172 29.088 35.376 28.896 35.568 28.656L35.64 28.584C35.736 28.488 35.784 28.44 35.784 28.44C35.832 28.344 35.988 28.176 36.252 27.936C36.516 27.696 36.672 27.552 36.72 27.504C36.816 27.36 37.02 27.12 37.332 26.784C37.644 26.448 37.848 26.184 37.944 25.992C38.664 25.032 39.336 24.024 39.96 22.968C40.584 21.912 40.896 20.76 40.896 19.512C40.896 18.936 40.764 18.444 40.5 18.036C40.236 17.628 40.032 17.16 39.888 16.632C39.456 15.336 39.24 14.064 39.24 12.816C39.24 11.808 39.336 10.812 39.528 9.828C39.72 8.844 39.816 7.848 39.816 6.84L39.816 6.552C39.816 6.456 39.792 6.276 39.744 6.012C39.696 5.748 39.672 5.568 39.672 5.472C39.672 5.376 39.636 5.16 39.564 4.824C39.492 4.488 39.432 4.296 39.384 4.248L39.384 4.176C39.384 4.08 39.456 4.032 39.6 4.032L39.672 4.032C39.912 4.128 40.14 4.212 40.356 4.284C40.572 4.356 40.8 4.44 41.04 4.536C41.04 4.536 41.088 4.56 41.184 4.608L41.256 4.608L45.216 10.08C45.36 10.464 45.6 10.872 45.936 11.304C46.608 12.312 47.232 13.32 47.808 14.328C48.384 15.336 48.984 16.368 49.608 17.424L49.68 17.496L51.264 20.592C51.36 20.784 51.432 20.952 51.48 21.096L51.48 22.68C51.48 24.888 51.408 27.084 51.264 29.268C51.12 31.452 51.096 33.648 51.192 35.856C51.192 35.904 51.18 35.976 51.156 36.072C51.132 36.168 51.12 36.24 51.12 36.288L51.048 36.504L51.048 36.936C51.048 37.176 51.036 37.572 51.012 38.124C50.988 38.676 50.952 39.276 50.904 39.924C50.856 40.572 50.82 41.172 50.796 41.724C50.772 42.276 50.76 42.672 50.76 42.912C50.664 43.68 50.484 44.232 50.22 44.568C49.956 44.904 49.632 45.36 49.248 45.936C49.2 45.936 49.176 45.96 49.176 46.008L49.176 46.152C49.128 46.152 49.104 46.164 49.104 46.188C49.104 46.212 49.08 46.224 49.032 46.224L48.96 46.296C48.144 47.592 47.496 48.864 47.016 50.112C46.92 50.16 46.872 50.28 46.872 50.472C46.632 51.096 46.428 51.708 46.26 52.308C46.092 52.908 45.912 53.544 45.72 54.216C45.624 54.648 45.528 55.08 45.432 55.512C45.336 55.944 45.168 56.352 44.928 56.736C44.832 56.88 44.676 57.12 44.46 57.456C44.244 57.792 44.028 58.164 43.812 58.572C43.596 58.98 43.38 59.352 43.164 59.688C42.948 60.024 42.792 60.264 42.696 60.408C42.552 60.648 42.384 60.864 42.192 61.056C42 61.248 41.856 61.488 41.76 61.776L40.176 63.792C40.032 63.888 39.888 64.044 39.744 64.26C39.6 64.476 39.456 64.656 39.312 64.8C38.976 65.184 38.652 65.544 38.34 65.88C38.028 66.216 37.68 66.576 37.296 66.96L37.224 66.888L36.648 55.584L36.648 54.792C36.648 53.304 37.272 52.08 38.52 51.12L44.208 46.872C44.688 46.488 45.132 46.056 45.54 45.576C45.948 45.096 46.344 44.616 46.728 44.136C47.496 43.176 48.168 42.156 48.744 41.076C49.32 39.996 49.872 38.904 50.4 37.8C50.496 37.56 50.616 37.284 50.76 36.972C50.904 36.66 51 36.36 51.048 36.072C51.048 36.024 51.036 35.904 51.012 35.712C50.988 35.52 50.976 35.376 50.976 35.28L50.76 35.712C50.712 35.808 50.604 36.06 50.436 36.468C50.268 36.876 50.16 37.128 50.112 37.224C48.576 40.344 46.56 43.056 44.064 45.36C42.72 46.608 41.304 47.688 39.816 48.6C39.72 48.648 39.528 48.756 39.24 48.924C38.952 49.092 38.64 49.272 38.304 49.464C37.968 49.656 37.644 49.836 37.332 50.004C37.02 50.172 36.84 50.28 36.792 50.328C36.264 50.616 35.736 51.06 35.208 51.66C34.68 52.26 34.416 52.896 34.416 53.568L34.416 55.296L35.28 68.04L35.28 68.112C35.28 68.256 35.268 68.388 35.244 68.508C35.22 68.628 35.184 68.76 35.136 68.904C34.464 69.672 33.732 70.236 32.94 70.596C32.148 70.956 31.272 71.208 30.312 71.352C30.168 71.4 29.94 71.448 29.628 71.496C29.316 71.544 29.004 71.592 28.692 71.64C28.38 71.688 28.08 71.724 27.792 71.748C27.504 71.772 27.312 71.784 27.216 71.784L26.208 71.784C24.768 71.784 23.304 71.64 21.816 71.352C21.336 71.256 20.94 71.16 20.628 71.064C20.316 70.968 19.968 70.872 19.584 70.776L19.44 70.776L19.44 70.776ZM21.816 48.456C21.864 48.552 21.948 48.648 22.068 48.744C22.188 48.84 22.272 48.912 22.32 48.96C22.32 49.008 22.344 49.032 22.392 49.032L22.536 49.032C23.112 49.128 23.64 49.188 24.12 49.212C24.6 49.236 25.128 49.296 25.704 49.392L26.064 49.392C26.688 49.392 27.288 49.356 27.864 49.284C28.44 49.212 29.04 49.128 29.664 49.032L29.88 48.96C29.928 48.912 30.012 48.84 30.132 48.744C30.252 48.648 30.336 48.552 30.384 48.456L34.704 43.128L35.712 41.688C35.76 41.544 35.856 41.448 36 41.4C36.48 41.208 36.9 41.04 37.26 40.896C37.62 40.752 38.016 40.56 38.448 40.32C39.6 39.648 40.668 38.88 41.652 38.016C42.636 37.152 43.416 36.096 43.992 34.848C44.088 34.704 44.172 34.524 44.244 34.308C44.316 34.092 44.352 33.912 44.352 33.768L44.28 33.768C43.608 34.488 42.924 35.196 42.228 35.892C41.532 36.588 40.8 37.248 40.032 37.872C39.888 37.968 39.6 38.148 39.168 38.412C38.736 38.676 38.472 38.856 38.376 38.952L34.776 40.752C34.728 40.752 34.704 40.776 34.704 40.824C34.656 40.872 34.632 40.92 34.632 40.968C34.584 41.064 34.452 41.292 34.236 41.652C34.02 42.012 33.888 42.24 33.84 42.336C33.792 42.432 33.684 42.6 33.516 42.84C33.348 43.08 33.168 43.344 32.976 43.632C32.784 43.92 32.604 44.196 32.436 44.46C32.268 44.724 32.136 44.928 32.04 45.072C31.944 45.216 31.788 45.432 31.572 45.72C31.356 46.008 31.116 46.308 30.852 46.62C30.588 46.932 30.324 47.208 30.06 47.448C29.796 47.688 29.568 47.832 29.376 47.88C29.136 47.928 28.668 47.988 27.972 48.06C27.276 48.132 26.808 48.192 26.568 48.24L26.064 48.24L25.488 48.24C25.296 48.192 24.852 48.132 24.156 48.06C23.46 47.988 22.992 47.928 22.752 47.88C22.464 47.688 22.188 47.448 21.924 47.16C21.66 46.872 21.408 46.584 21.168 46.296C21.024 46.104 20.796 45.828 20.484 45.468C20.172 45.108 20.016 44.904 20.016 44.856L17.424 40.752L13.824 38.952C13.104 38.568 12.408 38.088 11.736 37.512C11.064 36.936 10.44 36.384 9.864 35.856C9.72 35.664 9.396 35.304 8.892 34.776C8.388 34.248 8.064 33.912 7.92 33.768L7.848 33.768C7.848 34.056 7.944 34.368 8.136 34.704C8.328 35.04 8.496 35.352 8.64 35.64C9.456 37.128 10.56 38.316 11.952 39.204C13.344 40.092 14.784 40.848 16.272 41.472C16.32 41.472 16.368 41.496 16.416 41.544L17.496 43.128L21.816 48.456L21.816 48.456ZM9.504 34.632C10.32 35.448 11.22 36.288 12.204 37.152C13.188 38.016 14.232 38.64 15.336 39.024L15.408 39.024C15.552 39.024 15.816 38.916 16.2 38.7C16.584 38.484 16.872 38.328 17.064 38.232C17.256 38.184 17.688 38.088 18.36 37.944C19.032 37.8 19.392 37.584 19.44 37.296C19.008 36.768 18.456 36.336 17.784 36C17.112 35.664 16.44 35.448 15.768 35.352L9.432 34.272L9.36 34.272C9.36 34.32 9.408 34.44 9.504 34.632L9.504 34.632ZM32.76 37.296C32.76 37.44 32.904 37.572 33.192 37.692C33.48 37.812 33.696 37.896 33.84 37.944C33.888 37.944 34.008 37.956 34.2 37.98C34.392 38.004 34.512 38.016 34.56 38.016C34.608 38.064 34.704 38.112 34.848 38.16C34.992 38.208 35.088 38.232 35.136 38.232C35.232 38.28 35.412 38.364 35.676 38.484C35.94 38.604 36.12 38.712 36.216 38.808C36.264 38.856 36.336 38.904 36.432 38.952C36.528 39 36.624 39.024 36.72 39.024L36.792 39.024C36.936 39.024 37.008 39 37.008 38.952C38.4 38.376 39.72 37.512 40.968 36.36C41.064 36.216 41.34 35.916 41.796 35.46C42.252 35.004 42.552 34.728 42.696 34.632C42.792 34.44 42.84 34.32 42.84 34.272L42.768 34.272L36.144 35.424C35.568 35.52 34.968 35.736 34.344 36.072C33.72 36.408 33.216 36.768 32.832 37.152C32.784 37.2 32.76 37.248 32.76 37.296L32.76 37.296ZM9.576 25.488C10.248 25.488 10.728 25.704 11.016 26.136C11.304 26.568 11.664 26.976 12.096 27.36C12.24 27.456 12.492 27.636 12.852 27.9C13.212 28.164 13.44 28.344 13.536 28.44L18.216 31.536C18.552 31.728 18.9 31.884 19.26 32.004C19.62 32.124 19.968 32.304 20.304 32.544C20.4 32.592 20.568 32.7 20.808 32.868C21.048 33.036 21.3 33.204 21.564 33.372C21.828 33.54 22.08 33.72 22.32 33.912C22.56 34.104 22.728 34.224 22.824 34.272L23.04 34.272L23.04 34.056L22.032 33.048C21.792 32.856 21.516 32.628 21.204 32.364C20.892 32.1 20.616 31.896 20.376 31.752L13.824 27.504C13.44 27.264 13.116 26.94 12.852 26.532C12.588 26.124 12.312 25.74 12.024 25.38C11.736 25.02 11.412 24.708 11.052 24.444C10.692 24.18 10.272 24.048 9.792 24.048C9.12 24.048 8.532 24.252 8.028 24.66C7.524 25.068 7.08 25.536 6.696 26.064C6.6 26.208 6.492 26.388 6.372 26.604C6.252 26.82 6.192 27.024 6.192 27.216L6.336 27.216C6.768 26.832 7.26 26.448 7.812 26.064C8.364 25.68 8.952 25.488 9.576 25.488L9.576 25.488ZM39.024 26.928C38.976 26.928 38.952 26.952 38.952 27C38.856 27.096 38.736 27.192 38.592 27.288C38.448 27.384 38.376 27.456 38.376 27.504L31.032 32.328C30.984 32.376 30.852 32.484 30.636 32.652C30.42 32.82 30.264 32.952 30.168 33.048L29.16 34.056L29.16 34.272C29.256 34.272 29.352 34.248 29.448 34.2L32.256 32.328C32.784 31.992 33.288 31.728 33.768 31.536C34.248 31.344 34.752 31.056 35.28 30.672L40.104 27.36C40.584 26.976 40.944 26.568 41.184 26.136C41.424 25.704 41.904 25.488 42.624 25.488C43.248 25.488 43.836 25.68 44.388 26.064C44.94 26.448 45.432 26.832 45.864 27.216L46.008 27.216C46.008 27.024 45.936 26.82 45.792 26.604C45.648 26.388 45.528 26.208 45.432 26.064C45.048 25.536 44.616 25.068 44.136 24.66C43.656 24.252 43.08 24.048 42.408 24.048C41.64 24.048 41.04 24.336 40.608 24.912C40.512 25.056 40.248 25.392 39.816 25.92C39.384 26.448 39.12 26.784 39.024 26.928L39.024 26.928ZM19.076 30.312C18.7427 30.312 18.576 30.4787 18.576 30.812C18.576 31.1453 18.7427 31.312 19.076 31.312C19.4093 31.312 19.576 31.1453 19.576 30.812C19.576 30.4787 19.4093 30.312 19.076 30.312L19.076 30.312ZM19.8 26.496C19.8 26.592 19.932 26.772 20.196 27.036C20.46 27.3 20.748 27.576 21.06 27.864C21.372 28.152 21.672 28.404 21.96 28.62C22.248 28.836 22.44 28.944 22.536 28.944C22.536 27.792 22.38 26.544 22.068 25.2C21.756 23.856 21.48 22.584 21.24 21.384C21.144 21.144 21.084 20.892 21.06 20.628C21.036 20.364 20.952 20.136 20.808 19.944L20.304 18.288C20.208 18.096 20.124 17.856 20.052 17.568C19.98 17.28 19.896 17.016 19.8 16.776C19.704 16.536 19.608 16.32 19.512 16.128C19.416 15.936 19.32 15.72 19.224 15.48C19.176 15.384 19.092 15.156 18.972 14.796C18.852 14.436 18.768 14.208 18.72 14.112C18.432 13.392 18.084 12.696 17.676 12.024C17.268 11.352 16.872 10.68 16.488 10.008C16.44 9.96 16.404 9.876 16.38 9.756C16.356 9.636 16.296 9.576 16.2 9.576L16.2 9.72C16.344 10.104 16.512 10.5 16.704 10.908C16.896 11.316 17.04 11.712 17.136 12.096C17.424 13.056 17.7 13.992 17.964 14.904C18.228 15.816 18.432 16.752 18.576 17.712L18.648 17.856L19.8 26.496L19.8 26.496ZM29.664 28.944L29.736 28.944C30.264 28.704 30.72 28.368 31.104 27.936C31.488 27.504 31.872 27.096 32.256 26.712C32.304 26.664 32.34 26.616 32.364 26.568C32.388 26.52 32.424 26.472 32.472 26.424C32.664 24.024 32.94 21.66 33.3 19.332C33.66 17.004 34.2 14.688 34.92 12.384C35.112 12.144 35.244 11.844 35.316 11.484C35.388 11.124 35.472 10.824 35.568 10.584C35.616 10.44 35.7 10.284 35.82 10.116C35.94 9.948 36 9.792 36 9.648L35.928 9.576L35.928 9.648C35.832 9.696 35.616 10.008 35.28 10.584C34.944 11.16 34.704 11.592 34.56 11.88C34.464 12.12 34.248 12.576 33.912 13.248C33.576 13.92 33.36 14.376 33.264 14.616C33.264 14.76 33.228 14.892 33.156 15.012C33.084 15.132 33 15.264 32.904 15.408C32.76 15.84 32.604 16.26 32.436 16.668C32.268 17.076 32.112 17.496 31.968 17.928C31.584 18.888 31.284 19.884 31.068 20.916C30.852 21.948 30.624 22.992 30.384 24.048L29.664 28.656L29.664 28.944L29.664 28.944ZM44.496 6.264L44.496 6.12C44.592 6.072 44.784 6 45.072 5.904C45.36 5.808 45.552 5.736 45.648 5.688C45.936 5.592 46.212 5.46 46.476 5.292C46.74 5.124 47.04 5.016 47.376 4.968C49.344 3.768 50.76 2.16 51.624 0.143999L51.768 0C52.056 2.4 52.2 4.776 52.2 7.128L52.2 7.992C52.2 8.088 52.188 8.292 52.164 8.604C52.14 8.916 52.116 9.252 52.092 9.612C52.068 9.972 52.044 10.308 52.02 10.62C51.996 10.932 51.984 11.16 51.984 11.304C51.984 11.544 51.948 11.796 51.876 12.06C51.804 12.324 51.768 12.576 51.768 12.816C51.768 13.008 51.768 13.176 51.768 13.32C51.768 13.464 51.792 13.656 51.84 13.896L51.84 17.784L51.552 20.376L51.48 20.376C51.432 20.376 51.408 20.352 51.408 20.304L48.816 14.256C48.816 14.208 48.768 14.1 48.672 13.932C48.576 13.764 48.504 13.656 48.456 13.608C48.312 13.272 48.156 12.924 47.988 12.564C47.82 12.204 47.616 11.904 47.376 11.664L44.496 6.264L44.496 6.264ZM0.36 17.784L0.36 13.968C0.408 13.728 0.432 13.548 0.432 13.428C0.432 13.308 0.432 13.128 0.432 12.888L0.432 12.528C0.384 12.432 0.336 12.228 0.288 11.916C0.24 11.604 0.216 11.4 0.216 11.304C0.216 11.16 0.204 10.956 0.18 10.692C0.156 10.428 0.132 10.14 0.108 9.828C0.0840001 9.516 0.0599999 9.216 0.036 8.928C0.0120001 8.64 0 8.448 0 8.352L0 7.056C0 5.856 0.0120001 4.668 0.036 3.492C0.0599999 2.316 0.192 1.152 0.432 0C0.528 0.0479994 0.672 0.299999 0.864 0.756C1.056 1.212 1.248 1.536 1.44 1.728C2.304 2.88 3.216 3.792 4.176 4.464C5.136 5.136 6.312 5.688 7.704 6.12C7.752 6.12 7.776 6.168 7.776 6.264C7.776 6.312 7.764 6.336 7.74 6.336C7.716 6.336 7.704 6.384 7.704 6.48C7.608 6.576 7.428 6.864 7.164 7.344C6.9 7.824 6.744 8.112 6.696 8.208C6.648 8.208 6.624 8.232 6.624 8.28L6.624 8.352C6.528 8.352 6.48 8.424 6.48 8.568L4.032 13.104L3.672 13.68C3.672 13.728 3.576 13.944 3.384 14.328C3.192 14.712 2.988 15.156 2.772 15.66C2.556 16.164 2.328 16.668 2.088 17.172C1.848 17.676 1.656 18.096 1.512 18.432C1.464 18.528 1.356 18.828 1.188 19.332C1.02 19.836 0.912 20.136 0.864 20.232L0.792 20.304L0.72 20.232L0.36 17.784L0.36 17.784Z" id="path833" fill="#19232D" fill-rule="evenodd" stroke="none" />
    </g>
  </g>
</svg>