<?xml version="1.0" encoding="utf-8"?>
<svg width="220" height="407" viewBox="0 0 220 407" fill="none" xmlns="http://www.w3.org/2000/svg">
  <g>
    <path d="M0 5C0 2.23859 49.103 0 109.675 0C170.246 0 219.349 2.23859 219.349 5C219.349 7.76141 170.246 10 109.675 10C49.103 10 0 7.76141 0 5Z" fill="none" stroke-width="0.5" stroke="#59ADFF" transform="translate(0 240)" />
    <g transform="translate(46.379 68.598)">
      <path d="M56.4066 0C87.5591 0 112.813 25.2959 112.813 56.5C112.813 87.7043 87.5591 113 56.4066 113C25.2539 113 0 87.7043 0 56.5C0 25.2959 25.2539 0 56.4066 0ZM56.4125 6.53179C84.2413 6.53179 106.801 29.0496 106.801 56.8267C106.801 84.6037 84.2413 107.121 56.4125 107.121C28.5839 107.121 6.02376 84.6037 6.02376 56.8267C6.02376 29.0496 28.5839 6.53179 56.4125 6.53179Z" fill="#00B0F0" fill-rule="evenodd" transform="translate(5.187 0)" />
      <g transform="translate(0 2.598)">
        <g>
          <path d="M0 70.8194C0 70.8194 56.4298 0 56.4298 0L56.4298 70.8194L49.4727 70.8194L49.4727 19.4847L8.15587 70.8194C8.15587 70.8194 0 70.8194 0 70.8194Z" fill="#14AEE1" fill-rule="evenodd" transform="translate(13.894 13.915)" />
          <path d="M0 6.07024C0 6.07024 36.6428 6.07024 36.6428 6.07024L36.6428 6.07024L36.6428 6.07024L36.6428 0L0 0C0 0 0 6.07024 0 6.07024Z" fill="#14AEE1" fill-rule="evenodd" transform="translate(70.115 78.676)" />
          <path d="M0 6.07024C0 6.07024 34.4442 6.07024 34.4442 6.07024L34.4442 6.07024L34.4442 6.07024L34.4442 0L0 0C0 0 0 6.07024 0 6.07024Z" fill="#14AEE1" fill-rule="evenodd" transform="translate(35.483 57.215)" />
        </g>
      </g>
    </g>
    <path d="M0 0C0 0 6.50887 0 6.50887 0L6.50887 156.21L0 156.21C0 156.21 0 0 0 0Z" transform="translate(105.769 181)" />
  </g>
</svg>