<?xml version="1.0" encoding="utf-8"?>
<svg width="220px" height="407px" viewBox="0 0 338 407" version="1.1" xmlns:xlink="http://www.w3.org/1999/xlink" xmlns="http://www.w3.org/2000/svg">
  <g id="Group-Copy" transform="translate(107.5 58)">
    <path d="M0 60L0 0L10 10L10 60L0 60Z" id="New-shape-2" fill="#00B0F0" fill-rule="evenodd" stroke="#00B0F0" stroke-width="5" />
    <path d="M0 40L0 30L40 0L40 60L30 60L30 30L0 40Z" transform="translate(26 0)" id="New-shape-3" fill="#00B0F0" fill-rule="evenodd" stroke="#00B0F0" stroke-width="5" />
    <path d="M0 30L40 0L50 0L20 30L50 60L40 60L0 30Z" transform="translate(64 0)" id="New-shape-4" fill="#00B0F0" fill-rule="evenodd" stroke="#00B0F0" stroke-width="5" />
  </g>
  <path d="M0 5C0 2.23858 75.44 0 168.5 0C261.56 0 337 2.23858 337 5C337 7.76142 261.56 10 168.5 10C75.44 10 0 7.76142 0 5Z" transform="translate(0.5 256)" id="Ellipse" fill="#D3D3D3" fill-opacity="0" fill-rule="evenodd" stroke="#59ADFF" stroke-width="1" />
  <g id="Group-2-Copy" transform="translate(79.5 0)">
    <path d="M86.5 0C38.7274 0 0 38.7274 0 86.5C0 134.273 38.7274 173 86.5 173C134.273 173 173 134.273 173 86.5C173 38.7274 134.273 0 86.5 0ZM87.0089 8.14117C43.4515 8.14117 8.14124 43.4514 8.14124 87.0088C8.14124 130.566 43.4515 165.876 87.0089 165.876C130.566 165.876 165.877 130.566 165.877 87.0088C165.877 43.4514 130.566 8.14117 87.0089 8.14117Z" transform="matrix(-1 0 0 1 173 0)" id="Ellipse-Difference-2-Difference" fill="#00B0F0" fill-rule="evenodd" stroke="none" />
  </g>
  <path d="M0 0L10 0L10 240L0 240L0 0Z" transform="translate(162.5 167)" id="Rectangle-2" fill="#32B5E5" fill-opacity="0" fill-rule="evenodd" stroke="none" />
</svg>